<?xml version="1.0" encoding="UTF-8" standalone="no"?>
<!-- Created with Inkscape (http://www.inkscape.org/) -->

<svg
   xmlns:dc="http://purl.org/dc/elements/1.1/"
   xmlns:cc="http://creativecommons.org/ns#"
   xmlns:rdf="http://www.w3.org/1999/02/22-rdf-syntax-ns#"
   xmlns:svg="http://www.w3.org/2000/svg"
   xmlns="http://www.w3.org/2000/svg"
   xmlns:sodipodi="http://sodipodi.sourceforge.net/DTD/sodipodi-0.dtd"
   xmlns:inkscape="http://www.inkscape.org/namespaces/inkscape"
   id="svg2"
   version="1.1"
   inkscape:version="0.48.2 r9819"
   width="181.95012"
   height="175.233"
   xml:space="preserve"
   sodipodi:docname="Xsolla-main.ai"><metadata
     id="metadata8"><rdf:RDF><cc:Work
         rdf:about=""><dc:format>image/svg+xml</dc:format><dc:type
           rdf:resource="http://purl.org/dc/dcmitype/StillImage" /><dc:title></dc:title></cc:Work></rdf:RDF></metadata><defs
     id="defs6"><clipPath
       clipPathUnits="userSpaceOnUse"
       id="clipPath16"><path
         d="m 0,595.28 841.89,0 L 841.89,0 0,0 0,595.28 z"
         id="path18"
         inkscape:connector-curvature="0" /></clipPath></defs><sodipodi:namedview
     pagecolor="#ffffff"
     bordercolor="#666666"
     borderopacity="1"
     objecttolerance="10"
     gridtolerance="10"
     guidetolerance="10"
     inkscape:pageopacity="0"
     inkscape:pageshadow="2"
     inkscape:window-width="1463"
     inkscape:window-height="872"
     id="namedview4"
     showgrid="false"
     fit-margin-top="0"
     fit-margin-left="0"
     fit-margin-right="0"
     fit-margin-bottom="0"
     inkscape:zoom="1"
     inkscape:cx="90.975524"
     inkscape:cy="87.613762"
     inkscape:window-x="0"
     inkscape:window-y="0"
     inkscape:window-maximized="0"
     inkscape:current-layer="g10" /><g
     id="g10"
     inkscape:groupmode="layer"
     inkscape:label="Xsolla-main"
     transform="matrix(1.25,0,0,-1.25,-435.20575,459.66925)"><g
       id="g12"
       transform="matrix(0.65924728,0,0,0.65924728,143.43803,101.42239)"><g
         id="g14"
         clip-path="url(#clipPath16)"><g
           id="g20"
           transform="translate(477.7607,292.4629)"><path
             d="m 0,0 c -4.267,0 -7.673,-3.474 -7.673,-7.672 0,-4.19 3.406,-7.605 7.673,-7.605 4.192,0 7.602,3.415 7.602,7.605 C 7.602,-3.474 4.192,0 0,0 m 0,-23.634 c -8.834,0 -16.037,7.133 -16.037,15.962 0,8.838 7.203,15.973 16.037,15.973 8.769,0 15.964,-7.135 15.964,-15.973 0,-8.829 -7.195,-15.962 -15.964,-15.962"
             style="fill:#8c3ea4;fill-opacity:1;fill-rule:nonzero;stroke:none"
             id="path22"
             inkscape:connector-curvature="0" /></g><path
           d="m 420.272,227.549 -8.31,0 0,28.707 8.31,0 0,-28.707 z"
           style="fill:#b5dc20;fill-opacity:1;fill-rule:nonzero;stroke:none"
           id="path24"
           inkscape:connector-curvature="0" /><path
           d="m 432.313,227.549 -8.307,0 0,28.707 8.307,0 0,-28.707 z"
           style="fill:#b5dc20;fill-opacity:1;fill-rule:nonzero;stroke:none"
           id="path26"
           inkscape:connector-curvature="0" /><g
           id="g28"
           transform="translate(458.7695,353.6924)"><path
             d="M 0,0 8.174,8.18 2.245,14.043 -5.869,5.868 -5.883,5.891 -11.813,0.021 -11.8,0 l -0.013,-0.013 10.538,-10.506 -8.101,-8.103 5.869,-5.929 14.061,14.057 L 0,0 z"
             style="fill:#fcca20;fill-opacity:1;fill-rule:nonzero;stroke:none"
             id="path30"
             inkscape:connector-curvature="0" /></g><g
           id="g32"
           transform="translate(365.8496,284.9297)"><path
             d="m 0,0 3.902,-6.758 -7.879,0 L 0,0 z m -0.003,15.834 -17.682,-30.534 35.303,0 -17.621,30.534 z"
             style="fill:#66ccda;fill-opacity:1;fill-rule:nonzero;stroke:none"
             id="path34"
             inkscape:connector-curvature="0" /></g><g
           id="g36"
           transform="translate(402.6284,358.792)"><path
             d="M 0,0 -5.871,5.929 -16.035,-4.233 -26.196,5.929 -32.066,0 l 10.167,-10.1 -10.167,-10.166 5.87,-5.932 10.161,10.167 L -5.871,-26.198 0,-20.266 -10.136,-10.1 0,0 z"
             style="fill:#f2542d;fill-opacity:1;fill-rule:nonzero;stroke:none"
             id="path38"
             inkscape:connector-curvature="0" /></g></g></g></g></svg>