<svg xmlns="http://www.w3.org/2000/svg" width="511.626" height="511.627"><path d="M319.77 338.039c0 4.949-1.811 9.236-5.424 12.847-3.617 3.621-7.902 5.428-12.851 5.428h-91.361c-4.952 0-9.233-1.807-12.85-5.428-3.616-3.61-5.424-7.897-5.424-12.847V292.36H0v137.044c0 12.56 4.471 23.312 13.418 32.257 8.945 8.946 19.701 13.419 32.264 13.419h420.266c12.56 0 23.315-4.473 32.261-13.419 8.949-8.945 13.418-19.697 13.418-32.257V292.36H319.77v45.679z"/><path d="M219.266 292.36h73.096v36.545h-73.096zM498.208 123.054c-8.945-8.947-19.701-13.418-32.261-13.418H365.446V63.953c0-7.614-2.663-14.084-7.994-19.414-5.325-5.327-11.8-7.993-19.411-7.993H173.589c-7.612 0-14.083 2.666-19.414 7.993s-7.994 11.799-7.994 19.414v45.683H45.682c-12.562 0-23.318 4.471-32.264 13.418C4.471 132 0 142.75 0 155.313v109.636h511.626V155.313c0-12.563-4.468-23.313-13.418-32.259zm-169.304-13.418H182.725V73.089h146.179v36.547z"/></svg>