<svg height="512pt" viewBox="-82 0 512 512.002" width="512pt" xmlns="http://www.w3.org/2000/svg"><path d="M329.09 94.824a7.63 7.63 0 1 0-13.578 6.957c11.523 22.5 17.367 46.82 17.367 72.285 0 34.809-11.055 67.856-31.969 95.563-8.676 11.496-13.453 25.953-13.453 40.707v.973c0 20.777-16.902 37.68-37.676 37.68h-68.086V252.39c27.528-3.739 48.82-27.383 48.82-55.918a7.63 7.63 0 0 0-15.257 0c0 22.71-18.477 41.191-41.192 41.191s-41.191-18.48-41.191-41.191a7.63 7.63 0 0 0-15.258 0c0 28.535 21.293 52.18 48.82 55.918v96.597H98.353c-20.774 0-37.676-16.902-37.676-37.68v-.984c0-14.84-4.817-29.129-13.93-41.324-20.273-27.145-31.16-59.441-31.484-93.395-.403-42.5 15.941-82.656 46.015-113.074 30.067-30.406 70.016-47.195 112.493-47.273h.3c49.965 0 96.008 22.805 126.356 62.601 2.558 3.348 7.344 3.993 10.691 1.438a7.623 7.623 0 0 0 1.442-10.688c-15.934-20.898-36.723-38.191-60.118-50.007C227.902 6.207 201.383-.07 173.742 0 127.168.086 83.375 18.484 50.43 51.8 17.473 85.134-.434 129.153.008 175.75c.355 37.219 12.289 72.621 34.52 102.379 7.124 9.539 10.89 20.672 10.89 32.195v.985c0 16.27 7.383 30.84 18.965 40.558-11.172 5.074-18.965 16.328-18.965 29.375 0 14.832 10.07 27.352 23.727 31.102a32.052 32.052 0 0 0-5.61 18.152c0 17.785 14.469 32.254 32.254 32.254h21.652c3.743 27.77 27.579 49.25 56.356 49.25s52.613-21.484 56.351-49.25h21.653c17.785 0 32.254-14.469 32.254-32.254 0-6.726-2.07-12.976-5.606-18.152 13.656-3.75 23.723-16.27 23.723-31.102 0-12.91-7.629-24.066-18.61-29.215 11.692-9.718 19.153-24.359 19.153-40.714v-.973c0-11.461 3.683-22.652 10.37-31.52 22.927-30.375 35.048-66.601 35.048-104.75 0-27.91-6.406-54.57-19.043-79.246zM173.797 496.746c-20.348 0-37.317-14.68-40.91-33.996h81.82c-3.594 19.316-20.566 33.996-40.91 33.996zm96.121-132.5c9.375 0 17 7.625 17 16.996 0 9.375-7.625 17-17 17H137.125a7.629 7.629 0 0 0-7.629 7.625 7.63 7.63 0 0 0 7.629 7.63h114.676c9.375 0 17 7.624 17 17 0 9.37-7.625 16.995-17 16.995H95.789c-9.371 0-16.996-7.625-16.996-16.996 0-9.375 7.625-17 16.996-17h10.824a7.626 7.626 0 0 0 7.625-7.629 7.625 7.625 0 0 0-7.625-7.625H77.672c-9.371 0-16.996-7.629-16.996-17 0-9.375 7.625-16.996 16.996-16.996zm0 0"/></svg>