<svg xmlns="http://www.w3.org/2000/svg" viewBox="0 0 64 64"><path d="M24.697 14.666a3.03 3.03 0 0 0-3.026 3.026 3.03 3.03 0 0 0 3.026 3.027 3.03 3.03 0 0 0 3.028-3.027 3.03 3.03 0 0 0-3.028-3.026zm0 5.053a2.029 2.029 0 0 1-2.026-2.027c0-1.117.91-2.026 2.026-2.026 1.119 0 2.028.909 2.028 2.026a2.03 2.03 0 0 1-2.028 2.027z"/><path d="M43.643 21.474a6.44 6.44 0 0 0-1.343-2.206.527.527 0 0 0-.59-.126l-1.26.538a5.372 5.372 0 0 0-1.41-.773l-.133-1.267a.523.523 0 0 0-.423-.46 7.199 7.199 0 0 0-2.667 0 .522.522 0 0 0-.423.46l-.133 1.267c-.508.186-.987.449-1.411.773l-.672-.288a.507.507 0 0 0 .277-.377c.13-.878.13-1.768 0-2.645a.51.51 0 0 0-.464-.433l-1.854-.145a6.919 6.919 0 0 0-.587-1.417l1.209-1.416a.51.51 0 0 0 .021-.634 9.009 9.009 0 0 0-1.869-1.87.509.509 0 0 0-.635.023l-1.415 1.209a6.85 6.85 0 0 0-1.416-.588L26.3 9.245a.509.509 0 0 0-.433-.464 8.894 8.894 0 0 0-2.644 0 .509.509 0 0 0-.433.464l-.146 1.854a6.85 6.85 0 0 0-1.416.588l-1.415-1.21a.512.512 0 0 0-.635-.021 9.053 9.053 0 0 0-1.87 1.869.509.509 0 0 0 .022.634l1.21 1.416c-.249.449-.445.923-.588 1.417l-1.854.145a.51.51 0 0 0-.464.432 8.896 8.896 0 0 0 0 2.646.51.51 0 0 0 .464.432l1.854.146c.143.494.34.968.587 1.417l-1.209 1.415a.509.509 0 0 0-.022.635 9.062 9.062 0 0 0 1.87 1.87c.19.14.454.131.635-.023l1.415-1.21c.448.249.923.446 1.416.588l.146 1.855a.51.51 0 0 0 .433.463 8.901 8.901 0 0 0 2.644 0 .51.51 0 0 0 .433-.463l.146-1.855c.494-.142.968-.34 1.416-.587l1.415 1.21c.083.07.185.101.287.11a6.833 6.833 0 0 0-2.307-.087.489.489 0 0 0-.417.403l-.212 1.283a5.252 5.252 0 0 0-1.453.703l-1.21-.613a.492.492 0 0 0-.562.086 6.469 6.469 0 0 0-1.444 2.113.488.488 0 0 0 .149.574l1.044.818a4.884 4.884 0 0 0-.093 1.539l-1.14.694a.487.487 0 0 0-.216.55 6.384 6.384 0 0 0 1.177 2.265.49.49 0 0 0 .549.152l1.276-.472c.4.354.86.646 1.354.863l.053 1.294c.01.216.16.4.369.453a6.92 6.92 0 0 0 2.606.149.489.489 0 0 0 .418-.404l.211-1.282a5.256 5.256 0 0 0 1.453-.704l1.21.613c.187.094.411.06.562-.086a6.47 6.47 0 0 0 1.444-2.113.488.488 0 0 0-.149-.574l-1.044-.818a4.8 4.8 0 0 0 .093-1.539l1.141-.694a.487.487 0 0 0 .215-.55 6.365 6.365 0 0 0-1.024-2.055l.235-.1a5.4 5.4 0 0 0 1.41.774l.133 1.266c.023.23.196.417.423.46a7.189 7.189 0 0 0 2.667 0c.227-.043.4-.23.423-.46l.132-1.266c.508-.187.987-.45 1.411-.774l1.26.538c.203.087.44.037.59-.126a6.425 6.425 0 0 0 1.343-2.207.525.525 0 0 0-.199-.61l-1.094-.743c.079-.497.079-1.006 0-1.503l1.094-.745a.524.524 0 0 0 .199-.609zm-12.891-.228l-.202-.236c.247-.448.443-.923.587-1.417l.634-.05a6.4 6.4 0 0 0-1.02 1.703zm-2.505 1.442a.514.514 0 0 0-.601-.045 5.833 5.833 0 0 1-1.794.744.509.509 0 0 0-.394.456l-.141 1.803c-.514.05-1.032.05-1.545 0l-.142-1.803a.509.509 0 0 0-.394-.456 5.833 5.833 0 0 1-1.794-.744.511.511 0 0 0-.601.045l-1.375 1.174a8.073 8.073 0 0 1-1.093-1.092l1.175-1.375a.51.51 0 0 0 .045-.601A5.857 5.857 0 0 1 18.849 19a.51.51 0 0 0-.456-.394l-1.802-.142a7.844 7.844 0 0 1 0-1.544l1.802-.142a.51.51 0 0 0 .456-.393 5.856 5.856 0 0 1 .744-1.795.51.51 0 0 0-.045-.601l-1.175-1.375c.33-.399.694-.764 1.093-1.092l1.375 1.175c.17.144.415.161.601.044a5.836 5.836 0 0 1 1.794-.744.509.509 0 0 0 .394-.456l.142-1.802a8.007 8.007 0 0 1 1.545 0l.141 1.802a.509.509 0 0 0 .394.456 5.836 5.836 0 0 1 1.794.744c.187.116.431.1.601-.044l1.375-1.175c.399.328.764.693 1.092 1.092l-1.175 1.375a.51.51 0 0 0-.044.601c.346.551.596 1.155.744 1.796.05.216.235.375.456.392l1.802.142c.05.514.05 1.03 0 1.544l-1.802.142a.509.509 0 0 0-.456.393 5.852 5.852 0 0 1-.744 1.795.51.51 0 0 0 .044.601l1.175 1.375a7.985 7.985 0 0 1-1.092 1.093l-1.375-1.175zm1.664 2.241a9 9 0 0 0 1.87-1.87.5.5 0 0 0 .089-.287l.081.056a4.789 4.789 0 0 0 0 1.503l-1.095.744a.524.524 0 0 0-.2.61c.256.712.64 1.364 1.13 1.949l-.148.054a5.235 5.235 0 0 0-1.354-.861l-.053-1.295a.488.488 0 0 0-.369-.452c-.087-.022-.175-.035-.263-.054a.508.508 0 0 0 .312-.097zm2.594 5.282a.489.489 0 0 0-.227.498c.1.589.064 1.18-.107 1.756-.058.192.009.4.166.523l.993.777c-.221.439-.5.844-.832 1.21l-1.157-.586a.486.486 0 0 0-.524.053 4.202 4.202 0 0 1-1.645.794.488.488 0 0 0-.368.395l-.201 1.223a5.946 5.946 0 0 1-1.533-.086l-.05-1.235a.489.489 0 0 0-.322-.438 4.219 4.219 0 0 1-1.535-.974.49.49 0 0 0-.513-.114l-1.22.45a5.38 5.38 0 0 1-.677-1.293l1.084-.66a.486.486 0 0 0 .227-.5 3.827 3.827 0 0 1 .107-1.754.486.486 0 0 0-.166-.523l-.993-.777c.222-.439.5-.844.832-1.21l1.157.586c.17.085.373.065.524-.052a4.258 4.258 0 0 1 1.644-.795.487.487 0 0 0 .37-.395l.201-1.224a5.916 5.916 0 0 1 1.532.087l.05 1.235a.488.488 0 0 0 .322.439 4.209 4.209 0 0 1 1.535.974c.135.134.337.179.513.113l1.221-.45c.284.4.511.833.676 1.293l-1.084.66zm8.969-8.055a.524.524 0 0 0-.214.556 3.747 3.747 0 0 1 0 1.735.524.524 0 0 0 .214.555l1.033.702c-.19.429-.437.83-.737 1.2l-1.2-.513a.526.526 0 0 0-.55.087c-.458.4-1.016.705-1.615.881a.523.523 0 0 0-.372.449l-.126 1.201a6.142 6.142 0 0 1-1.514 0l-.126-1.202a.523.523 0 0 0-.372-.448 4.32 4.32 0 0 1-1.615-.88.524.524 0 0 0-.55-.088l-1.199.513c-.3-.369-.547-.77-.739-1.2l1.034-.702a.522.522 0 0 0 .215-.555 3.747 3.747 0 0 1 0-1.735.522.522 0 0 0-.215-.556l-1.034-.702c.192-.429.44-.83.74-1.2l1.198.514c.186.08.4.044.55-.087a4.307 4.307 0 0 1 1.614-.88.522.522 0 0 0 .373-.448l.126-1.204a6.23 6.23 0 0 1 1.514 0l.126 1.203a.522.522 0 0 0 .373.448c.598.176 1.156.48 1.614.88.15.132.364.168.55.088l1.2-.513c.3.37.547.771.737 1.2l-1.033.701z"/><path d="M58.034 33.142a1 1 0 0 0-.273-.607c-.036-.038-3.462-3.626-5.592-6.672 1.097-3.952.64-7.542.23-9.45.593-.039 1.217-.208 1.648-.661.263-.277.661-.893.377-1.908-2.702-9.622-8.657-10.277-10.227-10.277h-.022C42.895 2.847 37.312.004 29.611 0c-7.715.02-23.65 4.953-23.65 20.077 0 8.58 2.73 13.01 5.138 16.92 1.805 2.932 3.366 5.465 3.21 9.27-.29 7.02-5.762 16.123-5.818 16.214A1 1 0 0 0 9.347 64h29.806a1 1 0 0 0 .968-1.253c-.367-1.403-1.01-5.448.392-7.293.497-.653 1.226-.977 2.233-.993 4.38-.067 7.048-.8 8.398-2.306 1.297-1.448 1.126-3.241.975-4.823-.056-.595-.11-1.164-.088-1.682.634-.514.993-1.056 1.094-1.647.11-.647-.114-1.173-.357-1.564 1.111-.336 1.583-.981 1.782-1.481.443-1.11-.024-2.357-.737-3.599 4.315-1.478 4.247-3.92 4.221-4.217zm-6.006 2.656a.999.999 0 0 0-.596 1.519c.372.567 1.503 2.293 1.26 2.9-.054.136-.292.263-.653.348-.383.09-1.278.301-1.56 1.069-.256.694.16 1.262.41 1.602.09.122.258.351.264.43 0 0-.051.221-.641.624a.998.998 0 0 0-.426.688c-.118.85-.036 1.71.042 2.543.128 1.343.238 2.504-.475 3.3-.924 1.032-3.258 1.584-6.938 1.64-1.615.025-2.929.642-3.796 1.786-1.66 2.185-1.324 5.836-.995 7.753H11.067c1.63-2.992 5-9.83 5.24-15.651.181-4.415-1.61-7.323-3.506-10.401-2.269-3.683-4.84-7.858-4.84-15.87C7.961 6.46 22.551 2.017 29.617 2h.074c7.982 0 13.655 3.397 13.711 3.43.186.113.403.162.623.142.047-.01 5.862-.487 8.473 8.813l.001.005c-.265.053-.79.032-1.204-.058a1 1 0 0 0-1.165 1.298c.017.048 1.606 4.85-.01 10.115a.999.999 0 0 0 .126.85c1.823 2.713 4.703 5.864 5.712 6.943-.218.495-1.016 1.54-3.93 2.26z"/></svg>