<svg xmlns="http://www.w3.org/2000/svg" viewBox="0 0 512 512"><path d="M437.019 74.981C388.667 26.628 324.379 0 256 0S123.333 26.628 74.981 74.981C26.628 123.333 0 187.621 0 256s26.628 132.667 74.981 181.019C123.333 485.372 187.621 512 256 512s132.667-26.628 181.019-74.981S512 324.379 512 256s-26.628-132.667-74.981-181.019zM256 495.832C123.756 495.832 16.168 388.244 16.168 256S123.756 16.168 256 16.168 495.832 123.756 495.832 256 388.244 495.832 256 495.832z"/><path d="M400.989 98.637a8.082 8.082 0 0 0-8.577-.722L79.822 259.599a8.086 8.086 0 0 0 .098 14.412l81.764 40.88v81.006c0 2.12.721 4.218 2.18 5.757a8.109 8.109 0 0 0 5.905 2.557 8.072 8.072 0 0 0 3.927-1.018l93.544-51.969 71.597 30.684c1.523.653 3.209.923 4.839.619a8.097 8.097 0 0 0 6.485-6.372l18.115-90.577c1-5.003-2.826-9.67-7.928-9.67a8.08 8.08 0 0 0-7.927 6.496l-16.162 80.808-66.295-28.412a8.092 8.092 0 0 0-7.111.363l-85 47.223v-72.492c0-3.062-1.73-5.86-4.469-7.231l-72.015-36.007 283.53-146.654-24.605 123.023c-1 5.003 2.826 9.67 7.928 9.67a8.088 8.088 0 0 0 7.928-6.499l27.903-139.517a8.084 8.084 0 0 0-3.064-8.042z"/><path d="M348.576 164.757a8.083 8.083 0 0 0-10.581-1.873l-140.126 86.232a8.084 8.084 0 0 0-3.847 6.885v86.232a8.082 8.082 0 0 0 15.313 3.616l31.75-63.5 106.863-106.863a8.087 8.087 0 0 0 .628-10.729zM228.725 271.842a8.094 8.094 0 0 0-1.513 2.101l-17.022 34.043v-47.468l77.636-47.777-59.101 59.101z"/></svg>